<svg width="40" height="40" viewBox="0 0 40 40" fill="none" xmlns="http://www.w3.org/2000/svg">
<path d="M35.9691 12.3729C35.7804 11.6998 35.4129 11.0904 34.9055 10.6094C34.3838 10.1137 33.7444 9.75912 33.0476 9.57911C30.4398 8.89177 19.9923 8.89177 19.9923 8.89177C15.6368 8.84222 11.2824 9.06017 6.9536 9.5444C6.25681 9.73771 5.61858 10.1002 5.0957 10.5997C4.58193 11.094 4.20979 11.7036 4.01539 12.3715C3.54841 14.8873 3.32151 17.4417 3.33777 20.0003C3.32111 22.5567 3.54744 25.1103 4.01539 27.6291C4.20563 28.2942 4.57637 28.901 5.09153 29.3912C5.60669 29.8814 6.24821 30.2355 6.9536 30.4229C9.59605 31.1089 19.9923 31.1089 19.9923 31.1089C24.3533 31.1585 28.7132 30.9405 33.0476 30.4562C33.7444 30.2762 34.3838 29.9216 34.9055 29.4259C35.4193 28.9358 35.7844 28.3262 35.9677 27.6624C36.4469 25.1477 36.6799 22.5922 36.6634 20.0323C36.6995 17.4615 36.4668 14.894 35.9691 12.3715V12.3729ZM16.6708 24.7548V15.2473L25.3632 20.0017L16.6708 24.7548Z" fill="#B59571"/>
</svg>
