<svg width="41" height="27" viewBox="0 0 41 27" fill="none" xmlns="http://www.w3.org/2000/svg">
<g clip-path="url(#clip0_445_201)">
<path d="M2.71827 0.679443H38.6157C39.749 0.679443 40.667 1.59739 40.667 2.73073V24.2692C40.667 25.4025 39.749 26.3205 38.6157 26.3205H2.71827C1.58494 26.3205 0.666992 25.4025 0.666992 24.2692V2.73073C0.666992 1.59739 1.58494 0.679443 2.71827 0.679443Z" fill="white"/>
<path d="M28.5693 13.0129V18.5514H31.6463V15.2693H35.1334C36.6001 15.2591 37.8463 14.3206 38.3181 13.0129H28.5693Z" fill="#333333"/>
<path d="M28.1592 8.44873C28.3387 10.7103 30.4823 12.5 33.0976 12.5C33.1079 12.5 38.4464 12.5 38.4464 12.5C38.4874 12.2949 38.5079 12.0795 38.5079 11.859C38.5079 9.98206 36.9951 8.46412 35.1233 8.44873H28.1592Z" fill="#333333"/>
<path d="M23.6054 12.4436V12.4385V12.4436C23.6413 12.3821 23.6977 12.3462 23.7695 12.3462C23.872 12.3462 23.949 12.4282 23.9541 12.5257V18.5H27.031V8.44873H23.9541C23.5643 8.46412 23.1233 8.74617 22.9592 9.10001L20.5131 14.3513C20.5079 14.3718 20.4977 14.3923 20.4874 14.4128C20.4515 14.4641 20.39 14.5 20.3182 14.5C20.2054 14.5 20.1131 14.4077 20.1131 14.2949V8.44873H17.0361V18.5H20.1131C20.4977 18.4795 20.9284 18.1974 21.0925 17.8487L23.6054 12.459C23.6002 12.4539 23.6054 12.4487 23.6054 12.4436Z" fill="#333333"/>
<path d="M12.1182 12.618L10.3182 18.5H8.10285L6.30798 12.6128C6.29259 12.5205 6.21054 12.4487 6.10798 12.4487C5.99516 12.4487 5.90798 12.541 5.90798 12.6487V18.4949H2.83105V8.4436H5.47208H6.2567C6.8208 8.4436 7.41567 8.88463 7.57977 9.42309L9.07721 14.3205C9.15413 14.5667 9.27208 14.5616 9.349 14.3205L10.8464 9.42309C11.0105 8.8795 11.6054 8.4436 12.1695 8.4436H12.9541H15.5952V18.4949H12.5182V12.6487C12.5182 12.6487 12.5182 12.6487 12.5182 12.6436C12.5182 12.5308 12.4259 12.4436 12.3182 12.4436C12.2157 12.4487 12.1336 12.5205 12.1182 12.618Z" fill="#333333"/>
</g>
<defs>
<clipPath id="clip0_445_201">
<rect width="40" height="25.641" fill="white" transform="translate(0.666992 0.679443)"/>
</clipPath>
</defs>
</svg>
