<svg width="41" height="41" viewBox="0 0 41 41" fill="none" xmlns="http://www.w3.org/2000/svg">
<g clip-path="url(#clip0_445_199)">
<path d="M38.0003 33.8334H3.33366C1.86144 33.8334 0.666992 32.639 0.666992 31.1667V9.83341C0.666992 8.36119 1.86144 7.16675 3.33366 7.16675H38.0003C39.4725 7.16675 40.667 8.36119 40.667 9.83341V31.1667C40.667 32.639 39.4725 33.8334 38.0003 33.8334ZM20.4892 23.569L20.0903 26.069C20.9681 26.4445 21.9892 26.6634 23.0614 26.6634C23.147 26.6634 23.2314 26.6623 23.3159 26.659H23.3037C23.4014 26.6645 23.5148 26.6679 23.6303 26.6679C24.8625 26.6679 26.0048 26.2812 26.9426 25.6223L26.9237 25.6345C27.7748 25.0034 28.3214 24.0023 28.3214 22.8734C28.3214 22.8679 28.3214 22.8623 28.3214 22.8567V22.8579C28.3214 21.6356 27.5037 20.6201 25.8914 19.8356C25.4181 19.6045 25.0137 19.3623 24.6337 19.089L24.6592 19.1067C24.4392 18.9623 24.2925 18.7234 24.2781 18.449V18.4467C24.2959 18.1579 24.4614 17.9112 24.6992 17.7801L24.7037 17.7779C25.017 17.5956 25.3925 17.4879 25.7948 17.4879C25.8414 17.4879 25.8881 17.489 25.9348 17.4923H25.9281H26.017C26.0425 17.4923 26.0725 17.4912 26.1025 17.4912C26.8181 17.4912 27.497 17.6456 28.1092 17.9223L28.0781 17.9101L28.3381 18.049L28.737 15.6367C27.987 15.3401 27.117 15.1679 26.207 15.1679C26.1892 15.1679 26.1703 15.1679 26.1525 15.1679H26.1559C26.0848 15.1645 26.0014 15.1623 25.9181 15.1623C24.7003 15.1623 23.5714 15.5479 22.6481 16.2034L22.6659 16.1912C21.8303 16.7867 21.2914 17.7512 21.2914 18.8423V18.8479C21.2803 20.0234 22.127 21.039 23.8092 21.8701C24.2537 22.0645 24.637 22.3023 24.9803 22.5879L24.9725 22.5812C25.167 22.7456 25.2925 22.9867 25.3025 23.2567V23.259V23.2612C25.3025 23.6156 25.0914 23.9201 24.787 24.0567L24.7814 24.059C24.4481 24.2345 24.0525 24.3367 23.6325 24.3367C23.6159 24.3367 23.5981 24.3367 23.5814 24.3367H23.5837C23.5592 24.3367 23.5292 24.3367 23.5003 24.3367C22.5481 24.3367 21.6459 24.1256 20.837 23.7479L20.8759 23.7645L20.4948 23.5734L20.4892 23.569ZM31.7392 24.8367H35.4226C35.4818 25.0908 35.5977 25.6464 35.7703 26.5034H38.4448L36.1181 15.3579H33.8959C33.857 15.3545 33.8114 15.3523 33.7648 15.3523C33.1403 15.3523 32.6059 15.739 32.3881 16.2856L32.3848 16.2956L28.1181 26.5034H31.1403L31.747 24.8379L31.7392 24.8367ZM17.2125 15.3579L15.4059 26.5034H18.2881L20.0937 15.3579H17.2125ZM6.13588 17.6323L8.48033 26.4856H11.5181L16.0459 15.3579H12.9948L10.1792 22.9623L9.88366 21.4167L8.87921 16.2956C8.7781 15.7523 8.3081 15.3456 7.74255 15.3456C7.68477 15.3456 7.62699 15.3501 7.57144 15.3579L7.5781 15.3567H2.92588L2.89144 15.5823C6.47366 16.4923 8.82699 18.4556 9.88699 21.4156C9.54366 20.5356 9.04255 19.7856 8.41366 19.1667L8.41255 19.1656C7.78255 18.519 7.02588 18.0001 6.18255 17.6456L6.1381 17.629L6.13588 17.6323ZM34.9548 22.5445H32.5548C32.717 22.1164 33.0992 21.0793 33.7014 19.4334L33.7525 19.2767C33.7992 19.1612 33.857 19.0101 33.9303 18.8256C34.0037 18.6412 34.0525 18.4901 34.0859 18.3745L34.2948 19.329L34.9537 22.5401L34.9548 22.5445Z" fill="white"/>
</g>
<defs>
<clipPath id="clip0_445_199">
<rect width="40" height="40" fill="white" transform="translate(0.666992 0.5)"/>
</clipPath>
</defs>
</svg>
