<svg width="34" height="24" viewBox="0 0 34 24" fill="none" xmlns="http://www.w3.org/2000/svg">
<path d="M32.9691 4.37292C32.7804 3.69978 32.4129 3.09036 31.9055 2.60943C31.3838 2.11372 30.7444 1.75912 30.0476 1.57911C27.4398 0.891773 16.9923 0.891773 16.9923 0.891773C12.6368 0.842219 8.28237 1.06017 3.9536 1.5444C3.25681 1.73771 2.61858 2.10023 2.0957 2.59971C1.58193 3.09404 1.20979 3.70362 1.01539 4.37153C0.548407 6.88726 0.321514 9.44167 0.337771 12.0003C0.321108 14.5567 0.547445 17.1103 1.01539 19.6291C1.20563 20.2942 1.57637 20.901 2.09153 21.3912C2.60669 21.8814 3.24821 22.2355 3.9536 22.4229C6.59605 23.1089 16.9923 23.1089 16.9923 23.1089C21.3533 23.1585 25.7132 22.9405 30.0476 22.4562C30.7444 22.2762 31.3838 21.9216 31.9055 21.4259C32.4193 20.9358 32.7844 20.3262 32.9677 19.6624C33.4469 17.1477 33.6799 14.5922 33.6634 12.0323C33.6995 9.46147 33.4668 6.89395 32.9691 4.37153V4.37292ZM13.6708 16.7548V7.24725L22.3632 12.0017L13.6708 16.7548Z" fill="#B59571"/>
</svg>
